<svg xmlns="http://www.w3.org/2000/svg" viewBox="0 0 367.66 367.66"><defs><style>.cls-1{fill:#fff;}.cls-2{fill:#137b64;}.cls-3{fill:#6cace4;}.cls-4{fill:gold;}.cls-5{fill:#ff4040;}</style></defs><g id="Capa_2" data-name="Capa 2"><g id="Capa_1-2" data-name="Capa 1"><rect class="cls-1" width="367.66" height="367.66" rx="55.15"/><path class="cls-2" d="M125.6,126.8a107.22,107.22,0,0,1,79.69,35.37,89.09,89.09,0,1,0-159.38,0A107.18,107.18,0,0,1,125.6,126.8Z"/><path class="cls-3" d="M127.4,243.6a107.18,107.18,0,0,1,35.37-79.69,89.09,89.09,0,1,0,0,159.37A107.18,107.18,0,0,1,127.4,243.6Z"/><path class="cls-4" d="M242.62,240.86a107.18,107.18,0,0,1-79.69-35.37,89.09,89.09,0,1,0,159.38,0A107.2,107.2,0,0,1,242.62,240.86Z"/><path class="cls-5" d="M240.26,124.62a107.18,107.18,0,0,1-35.37,79.69,89.09,89.09,0,1,0,0-159.38A107.2,107.2,0,0,1,240.26,124.62Z"/></g></g></svg>