<svg xmlns="http://www.w3.org/2000/svg" viewBox="0 0 299.95 301.15"><defs><style>.cls-1{fill:#137b64;}.cls-2{fill:#6cace4;}.cls-3{fill:gold;}.cls-4{fill:#ff4040;}</style></defs><g id="Capa_2" data-name="Capa 2"><g id="Capa_1-2" data-name="Capa 1"><path class="cls-1" d="M91.74,93.54a107.18,107.18,0,0,1,79.69,35.37,89.09,89.09,0,1,0-159.38,0A107.2,107.2,0,0,1,91.74,93.54Z"/><path class="cls-2" d="M93.54,210.34a107.18,107.18,0,0,1,35.37-79.69,89.09,89.09,0,1,0,0,159.38A107.2,107.2,0,0,1,93.54,210.34Z"/><path class="cls-3" d="M208.76,207.61a107.17,107.17,0,0,1-79.69-35.38,89.09,89.09,0,1,0,159.38,0A107.16,107.16,0,0,1,208.76,207.61Z"/><path class="cls-4" d="M206.4,91.37A107.18,107.18,0,0,1,171,171.05,89.09,89.09,0,1,0,210.86,2.28,88.62,88.62,0,0,0,171,11.68,107.18,107.18,0,0,1,206.4,91.37Z"/></g></g></svg>