<svg xmlns="http://www.w3.org/2000/svg" viewBox="0 0 1176.42 301.15"><defs><style>.cls-1{fill:#137b64;}.cls-2{fill:#6cace4;}.cls-3{fill:gold;}.cls-4{fill:#ff4040;}</style></defs><g id="Capa_2" data-name="Capa 2"><g id="Capa_1-2" data-name="Capa 1"><path class="cls-1" d="M91.74,93.54a107.18,107.18,0,0,1,79.69,35.37,89.09,89.09,0,1,0-159.38,0A107.2,107.2,0,0,1,91.74,93.54Z"/><path class="cls-2" d="M93.54,210.34a107.18,107.18,0,0,1,35.37-79.69,89.09,89.09,0,1,0,0,159.38A107.2,107.2,0,0,1,93.54,210.34Z"/><path class="cls-3" d="M208.76,207.61a107.17,107.17,0,0,1-79.69-35.38,89.09,89.09,0,1,0,159.38,0A107.16,107.16,0,0,1,208.76,207.61Z"/><path class="cls-4" d="M206.4,91.37A107.18,107.18,0,0,1,171,171.05,89.09,89.09,0,1,0,210.86,2.28,88.62,88.62,0,0,0,171,11.68,107.18,107.18,0,0,1,206.4,91.37Z"/><path d="M398.24,2H536.82V47.55H444v81.28h92.86v45.52H444v126.8H398.24Z"/><path d="M585.59,2h45.72v253.6h93.88v45.52H585.59Z"/><path d="M774,2h45.52V301.15H774Z"/><path d="M1015,145.09,1101.73,301l-54.46.2-61.57-104-60.15,104h-57.3l88.19-156.06L873.53,0H928L985.7,99.57,1042.19,0h57.1Z"/><path d="M1153.39,221.3h22.8v12.49h-82.08V219.07a26.26,26.26,0,0,1,8.7-19.85,31,31,0,0,1,42,0,26.26,26.26,0,0,1,8.7,19.85C1153.5,219.82,1153.46,220.56,1153.39,221.3Zm-47.07,0h34.8a14.42,14.42,0,0,0,.17-2.23,15.41,15.41,0,0,0-5.14-11.68,18.27,18.27,0,0,0-24.73,0,15.48,15.48,0,0,0-5.1,11.68Z"/><path d="M1153.39,165.15h22.8v12.49h-82.08V165.15h.05c0-.75-.05-1.49-.05-2.23a26.26,26.26,0,0,1,8.7-19.85,31,31,0,0,1,42,0,30.67,30.67,0,0,1,3.79,4.29l27.83-14.89v13.38l-23.31,12.38a27.92,27.92,0,0,1,.39,4.69C1153.5,163.66,1153.46,164.4,1153.39,165.15Zm-47,0h34.69a14.51,14.51,0,0,0,.17-2.23,15.4,15.4,0,0,0-5.14-11.68,18.24,18.24,0,0,0-24.73,0,15.46,15.46,0,0,0-5.1,11.68C1106.32,163.66,1106.36,164.4,1106.43,165.15Z"/><path d="M1135,34.72A39.37,39.37,0,0,1,1151.13,38a41.37,41.37,0,0,1,13.07,9.07A43.49,43.49,0,0,1,1173,60.48a43,43,0,0,1,0,32.84,43.42,43.42,0,0,1-8.84,13.39,41.18,41.18,0,0,1-13.07,9.06,39.38,39.38,0,0,1-16.09,3.32,40,40,0,0,1-16.14-3.32,40.93,40.93,0,0,1-13.19-9.06,43,43,0,0,1-8.81-13.39,43.23,43.23,0,0,1,0-32.84,43.06,43.06,0,0,1,8.81-13.38A41.12,41.12,0,0,1,1118.9,38,40,40,0,0,1,1135,34.72Zm0,70.87a28.39,28.39,0,0,0,20.27-8.36,28.67,28.67,0,0,0-9.09-46.73,29.14,29.14,0,0,0-22.36,0,28.66,28.66,0,0,0-9.09,6.1,28,28,0,0,0-6,9.12,29.76,29.76,0,0,0,0,22.36A28.28,28.28,0,0,0,1135,105.59Z"/></g></g></svg>