<svg xmlns="http://www.w3.org/2000/svg" viewBox="0 0 806.09 301.15"><defs><style>.cls-1{fill:#137b64;}.cls-2{fill:#6cace4;}.cls-3{fill:gold;}.cls-4{fill:#ff4040;}.cls-5{fill:#fff;}</style></defs><g id="Capa_2" data-name="Capa 2"><g id="Capa_1-2" data-name="Capa 1"><path class="cls-1" d="M91.74,93.54a107.18,107.18,0,0,1,79.69,35.37,89.09,89.09,0,1,0-159.38,0A107.2,107.2,0,0,1,91.74,93.54Z"/><path class="cls-2" d="M93.54,210.34a107.18,107.18,0,0,1,35.37-79.69,89.09,89.09,0,1,0,0,159.38A107.2,107.2,0,0,1,93.54,210.34Z"/><path class="cls-3" d="M208.76,207.61a107.17,107.17,0,0,1-79.69-35.38,89.09,89.09,0,1,0,159.38,0A107.16,107.16,0,0,1,208.76,207.61Z"/><path class="cls-4" d="M206.4,91.37A107.18,107.18,0,0,1,171,171.05,89.09,89.09,0,1,0,210.86,2.28,88.62,88.62,0,0,0,171,11.68,107.18,107.18,0,0,1,206.4,91.37Z"/><path class="cls-5" d="M399.76,10.39h80V36.68H426.16V83.63H479.8v26.29H426.16v73.23h-26.4Z"/><path class="cls-5" d="M508,10.39h26.41V156.86H588.6v26.29H508Z"/><path class="cls-5" d="M616.77,10.39h26.29V183.15H616.77Z"/><path class="cls-5" d="M756,93l50.12,90-31.46.11-35.56-60.09-34.74,60.09h-33.1L722.17,93,674.28,9.22h31.46l33.33,57.51L771.7,9.22h33Z"/><path class="cls-5" d="M412.25,268.9v22.81H399.76V209.63h14.72a26.26,26.26,0,0,1,19.85,8.7,31,31,0,0,1,0,42A26.29,26.29,0,0,1,414.48,269,20.68,20.68,0,0,1,412.25,268.9Zm0-47.06v34.79a13.28,13.28,0,0,0,2.23.17,15.45,15.45,0,0,0,11.68-5.13,18.27,18.27,0,0,0,0-24.73,15.49,15.49,0,0,0-11.68-5.1Z"/><path class="cls-5" d="M468.4,268.9v22.81H455.91V209.63H468.4v.05c.74,0,1.49-.05,2.23-.05a26.26,26.26,0,0,1,19.85,8.7,31,31,0,0,1,0,42,30.67,30.67,0,0,1-4.29,3.79l14.89,27.82H487.7l-12.38-23.31a27.92,27.92,0,0,1-4.69.39A20.81,20.81,0,0,1,468.4,268.9Zm0-46.95v34.68a13.36,13.36,0,0,0,2.23.17,15.42,15.42,0,0,0,11.68-5.13,18.24,18.24,0,0,0,0-24.73,15.46,15.46,0,0,0-11.68-5.1C469.89,221.84,469.14,221.88,468.4,222Z"/><path class="cls-5" d="M598.83,250.56a39.17,39.17,0,0,1-3.32,16.08,41.34,41.34,0,0,1-9.06,13.08,43.67,43.67,0,0,1-13.38,8.84,43,43,0,0,1-32.84,0,43.6,43.6,0,0,1-13.39-8.84,41.34,41.34,0,0,1-9.06-13.08,39.33,39.33,0,0,1-3.32-16.08,40,40,0,0,1,3.32-16.15,41,41,0,0,1,9.06-13.19,43.34,43.34,0,0,1,13.39-8.81,43.35,43.35,0,0,1,32.84,0,43.41,43.41,0,0,1,13.38,8.81,41,41,0,0,1,9.06,13.19A39.87,39.87,0,0,1,598.83,250.56Zm-70.87,0a28.11,28.11,0,0,0,2.23,11.18A28.87,28.87,0,0,0,577,270.83a28.89,28.89,0,0,0,6.1-9.09,29.14,29.14,0,0,0,0-22.36,28.66,28.66,0,0,0-6.1-9.09,27.85,27.85,0,0,0-9.12-6,29.76,29.76,0,0,0-22.36,0A28.28,28.28,0,0,0,528,250.56Z"/></g></g></svg>